<mxfile host="65bd71144e">
    <diagram id="DUNdv-28ZOJBSTWL3f0M" name="Page-1">
        <mxGraphModel dx="234" dy="446" grid="1" gridSize="10" guides="1" tooltips="1" connect="1" arrows="1" fold="1" page="1" pageScale="1" pageWidth="850" pageHeight="1100" math="0" shadow="0">
            <root>
                <mxCell id="0"/>
                <mxCell id="1" parent="0"/>
                <mxCell id="2" value="" style="shape=table;startSize=0;container=1;collapsible=0;childLayout=tableLayout;" vertex="1" parent="1">
                    <mxGeometry x="340" y="50" width="140" height="90" as="geometry"/>
                </mxCell>
                <mxCell id="3" value="" style="shape=tableRow;horizontal=0;startSize=0;swimlaneHead=0;swimlaneBody=0;strokeColor=inherit;top=0;left=0;bottom=0;right=0;collapsible=0;dropTarget=0;fillColor=none;points=[[0,0.5],[1,0.5]];portConstraint=eastwest;" vertex="1" parent="2">
                    <mxGeometry width="140" height="90" as="geometry"/>
                </mxCell>
                <mxCell id="4" value="greet" style="shape=partialRectangle;html=1;whiteSpace=wrap;connectable=0;overflow=hidden;top=0;left=0;bottom=0;right=0;pointerEvents=1;" vertex="1" parent="3">
                    <mxGeometry width="140" height="90" as="geometry">
                        <mxRectangle width="140" height="90" as="alternateBounds"/>
                    </mxGeometry>
                </mxCell>
                <mxCell id="5" value="clean_pitch" style="shape=partialRectangle;html=1;whiteSpace=wrap;connectable=0;overflow=hidden;top=0;left=0;bottom=0;right=0;pointerEvents=1;" vertex="1" parent="1">
                    <mxGeometry x="340" y="660" width="140" height="90" as="geometry">
                        <mxRectangle width="140" height="90" as="alternateBounds"/>
                    </mxGeometry>
                </mxCell>
                <mxCell id="6" value="fibonacci_stop" style="shape=partialRectangle;html=1;whiteSpace=wrap;connectable=0;overflow=hidden;top=0;left=0;bottom=0;right=0;pointerEvents=1;" vertex="1" parent="1">
                    <mxGeometry x="340" y="500" width="140" height="90" as="geometry">
                        <mxRectangle width="140" height="90" as="alternateBounds"/>
                    </mxGeometry>
                </mxCell>
                <mxCell id="7" value="square_list" style="shape=partialRectangle;html=1;whiteSpace=wrap;connectable=0;overflow=hidden;top=0;left=0;bottom=0;right=0;pointerEvents=1;" vertex="1" parent="1">
                    <mxGeometry x="340" y="350" width="140" height="90" as="geometry">
                        <mxRectangle width="140" height="90" as="alternateBounds"/>
                    </mxGeometry>
                </mxCell>
                <mxCell id="8" value="goldilocks" style="shape=partialRectangle;html=1;whiteSpace=wrap;connectable=0;overflow=hidden;top=0;left=0;bottom=0;right=0;pointerEvents=1;" vertex="1" parent="1">
                    <mxGeometry x="340" y="200" width="140" height="90" as="geometry">
                        <mxRectangle width="140" height="90" as="alternateBounds"/>
                    </mxGeometry>
                </mxCell>
                <UserObject label="string" placeholders="1" name="Variable" id="9">
                    <mxCell style="text;html=1;strokeColor=none;fillColor=none;align=center;verticalAlign=middle;whiteSpace=wrap;overflow=hidden;" vertex="1" parent="1">
                        <mxGeometry x="210" y="85" width="80" height="20" as="geometry"/>
                    </mxCell>
                </UserObject>
                <mxCell id="10" value="" style="edgeStyle=elbowEdgeStyle;elbow=horizontal;endArrow=classic;html=1;curved=0;rounded=0;endSize=8;startSize=8;" edge="1" parent="1">
                    <mxGeometry width="50" height="50" relative="1" as="geometry">
                        <mxPoint x="280" y="94.5" as="sourcePoint"/>
                        <mxPoint x="330" y="94.5" as="targetPoint"/>
                        <Array as="points">
                            <mxPoint x="320" y="104.5"/>
                        </Array>
                    </mxGeometry>
                </mxCell>
                <UserObject label="Int or float" placeholders="1" name="Variable" id="11">
                    <mxCell style="text;html=1;strokeColor=none;fillColor=none;align=center;verticalAlign=middle;whiteSpace=wrap;overflow=hidden;" vertex="1" parent="1">
                        <mxGeometry x="210" y="235" width="80" height="20" as="geometry"/>
                    </mxCell>
                </UserObject>
                <mxCell id="12" value="" style="edgeStyle=elbowEdgeStyle;elbow=horizontal;endArrow=classic;html=1;curved=0;rounded=0;endSize=8;startSize=8;" edge="1" parent="1">
                    <mxGeometry width="50" height="50" relative="1" as="geometry">
                        <mxPoint x="280" y="244.5" as="sourcePoint"/>
                        <mxPoint x="330" y="244.5" as="targetPoint"/>
                        <Array as="points">
                            <mxPoint x="320" y="254.5"/>
                        </Array>
                    </mxGeometry>
                </mxCell>
                <UserObject label="int or float" placeholders="1" name="Variable" id="14">
                    <mxCell style="text;html=1;strokeColor=none;fillColor=none;align=center;verticalAlign=middle;whiteSpace=wrap;overflow=hidden;" vertex="1" parent="1">
                        <mxGeometry x="210" y="385" width="80" height="20" as="geometry"/>
                    </mxCell>
                </UserObject>
                <mxCell id="15" value="" style="edgeStyle=elbowEdgeStyle;elbow=horizontal;endArrow=classic;html=1;curved=0;rounded=0;endSize=8;startSize=8;" edge="1" parent="1">
                    <mxGeometry width="50" height="50" relative="1" as="geometry">
                        <mxPoint x="280" y="394.5" as="sourcePoint"/>
                        <mxPoint x="330" y="394.5" as="targetPoint"/>
                        <Array as="points">
                            <mxPoint x="320" y="404.5"/>
                        </Array>
                    </mxGeometry>
                </mxCell>
                <UserObject label="Int" placeholders="1" name="Variable" id="16">
                    <mxCell style="text;html=1;strokeColor=none;fillColor=none;align=center;verticalAlign=middle;whiteSpace=wrap;overflow=hidden;" vertex="1" parent="1">
                        <mxGeometry x="210" y="535" width="80" height="20" as="geometry"/>
                    </mxCell>
                </UserObject>
                <mxCell id="17" value="" style="edgeStyle=elbowEdgeStyle;elbow=horizontal;endArrow=classic;html=1;curved=0;rounded=0;endSize=8;startSize=8;" edge="1" parent="1">
                    <mxGeometry width="50" height="50" relative="1" as="geometry">
                        <mxPoint x="280" y="544.5" as="sourcePoint"/>
                        <mxPoint x="330" y="544.5" as="targetPoint"/>
                        <Array as="points">
                            <mxPoint x="320" y="554.5"/>
                        </Array>
                    </mxGeometry>
                </mxCell>
                <UserObject label="Two lists of equal length:&amp;nbsp;&lt;div&gt;1. - int or float&lt;/div&gt;&lt;div&gt;2. - 0 or 1&lt;/div&gt;" placeholders="1" name="Variable" id="18">
                    <mxCell style="text;html=1;strokeColor=none;fillColor=none;align=center;verticalAlign=middle;whiteSpace=wrap;overflow=hidden;" vertex="1" parent="1">
                        <mxGeometry x="190" y="668.75" width="90" height="72.5" as="geometry"/>
                    </mxCell>
                </UserObject>
                <mxCell id="19" value="" style="edgeStyle=elbowEdgeStyle;elbow=horizontal;endArrow=classic;html=1;curved=0;rounded=0;endSize=8;startSize=8;" edge="1" parent="1">
                    <mxGeometry width="50" height="50" relative="1" as="geometry">
                        <mxPoint x="280" y="704.5" as="sourcePoint"/>
                        <mxPoint x="330" y="704.5" as="targetPoint"/>
                        <Array as="points">
                            <mxPoint x="320" y="714.5"/>
                        </Array>
                    </mxGeometry>
                </mxCell>
                <UserObject label="The number squared" placeholders="1" name="Variable" id="20">
                    <mxCell style="text;html=1;strokeColor=none;fillColor=none;align=center;verticalAlign=middle;whiteSpace=wrap;overflow=hidden;" vertex="1" parent="1">
                        <mxGeometry x="560" y="377.5" width="80" height="35" as="geometry"/>
                    </mxCell>
                </UserObject>
                <mxCell id="21" value="" style="edgeStyle=elbowEdgeStyle;elbow=horizontal;endArrow=classic;html=1;curved=0;rounded=0;endSize=8;startSize=8;" edge="1" parent="1">
                    <mxGeometry width="50" height="50" relative="1" as="geometry">
                        <mxPoint x="500" y="394.5" as="sourcePoint"/>
                        <mxPoint x="550" y="394.5" as="targetPoint"/>
                        <Array as="points">
                            <mxPoint x="540" y="404.5"/>
                        </Array>
                    </mxGeometry>
                </mxCell>
                <UserObject label="A list containing all fibonacci numbers up to the given integer" placeholders="1" name="Variable" id="22">
                    <mxCell style="text;html=1;strokeColor=none;fillColor=none;align=center;verticalAlign=middle;whiteSpace=wrap;overflow=hidden;" vertex="1" parent="1">
                        <mxGeometry x="550" y="517.5" width="130" height="55" as="geometry"/>
                    </mxCell>
                </UserObject>
                <mxCell id="23" value="" style="edgeStyle=elbowEdgeStyle;elbow=horizontal;endArrow=classic;html=1;curved=0;rounded=0;endSize=8;startSize=8;" edge="1" parent="1">
                    <mxGeometry width="50" height="50" relative="1" as="geometry">
                        <mxPoint x="500" y="544.5" as="sourcePoint"/>
                        <mxPoint x="550" y="544.5" as="targetPoint"/>
                        <Array as="points">
                            <mxPoint x="540" y="554.5"/>
                        </Array>
                    </mxGeometry>
                </mxCell>
                <UserObject label="A list that looks like the first list, with -999 for all the numbers under 0 and over 90, where the corrosponding lists nummber is also 1" placeholders="1" name="Variable" id="24">
                    <mxCell style="text;html=1;strokeColor=none;fillColor=none;align=center;verticalAlign=middle;whiteSpace=wrap;overflow=hidden;" vertex="1" parent="1">
                        <mxGeometry x="560" y="652.5" width="150" height="105" as="geometry"/>
                    </mxCell>
                </UserObject>
                <mxCell id="25" value="" style="edgeStyle=elbowEdgeStyle;elbow=horizontal;endArrow=classic;html=1;curved=0;rounded=0;endSize=8;startSize=8;" edge="1" parent="1">
                    <mxGeometry width="50" height="50" relative="1" as="geometry">
                        <mxPoint x="500" y="704.5" as="sourcePoint"/>
                        <mxPoint x="550" y="704.5" as="targetPoint"/>
                        <Array as="points">
                            <mxPoint x="540" y="714.5"/>
                        </Array>
                    </mxGeometry>
                </mxCell>
                <UserObject label="A string telling if the number is is smaller, biger or in between 140 and 150" placeholders="1" name="Variable" id="26">
                    <mxCell style="text;html=1;strokeColor=none;fillColor=none;align=center;verticalAlign=middle;whiteSpace=wrap;overflow=hidden;" vertex="1" parent="1">
                        <mxGeometry x="550" y="212.5" width="130" height="65" as="geometry"/>
                    </mxCell>
                </UserObject>
                <mxCell id="27" value="" style="edgeStyle=elbowEdgeStyle;elbow=horizontal;endArrow=classic;html=1;curved=0;rounded=0;endSize=8;startSize=8;" edge="1" parent="1">
                    <mxGeometry width="50" height="50" relative="1" as="geometry">
                        <mxPoint x="500" y="244.5" as="sourcePoint"/>
                        <mxPoint x="550" y="244.5" as="targetPoint"/>
                        <Array as="points">
                            <mxPoint x="540" y="254.5"/>
                        </Array>
                    </mxGeometry>
                </mxCell>
                <UserObject label="&quot;Hello, string&quot;" placeholders="1" name="Variable" id="28">
                    <mxCell style="text;html=1;strokeColor=none;fillColor=none;align=center;verticalAlign=middle;whiteSpace=wrap;overflow=hidden;" vertex="1" parent="1">
                        <mxGeometry x="560" y="85" width="80" height="20" as="geometry"/>
                    </mxCell>
                </UserObject>
                <mxCell id="29" value="" style="edgeStyle=elbowEdgeStyle;elbow=horizontal;endArrow=classic;html=1;curved=0;rounded=0;endSize=8;startSize=8;" edge="1" parent="1">
                    <mxGeometry width="50" height="50" relative="1" as="geometry">
                        <mxPoint x="500" y="94.5" as="sourcePoint"/>
                        <mxPoint x="550" y="94.5" as="targetPoint"/>
                        <Array as="points">
                            <mxPoint x="540" y="104.5"/>
                        </Array>
                    </mxGeometry>
                </mxCell>
            </root>
        </mxGraphModel>
    </diagram>
</mxfile>